# xmcd CD database file
#
# Track frame offsets:
#	150
#	16338
#	39108
#	49502
#	59275
#	83703
#	110180
#	144612
#	161345
#	179922
#	201329
#	228701
#	256110
#	274802
#	294433
#	305801
#	325774
#	336198
#
# Disc length: 4720 seconds
#
# Revision: 2
# Processed by: cddbd v1.5.2PL0 Copyright (c) Steve Scherf et al.
# Submitted via: CDex 1.51
#
DISCID=09126e12
DTITLE=SOULFLY - PROPHECY
DYEAR=2004
DGENRE=Heavy Metal
TTITLE0=Prophecy
TTITLE1=Living Sacrifice
TTITLE2=Execution Style
TTITLE3=Defeat U
TTITLE4=Mars
TTITLE5=I Believe
TTITLE6=Moses
TTITLE7=Born Again Anarchist
TTITLE8=Porrada
TTITLE9=In The Meantime
TTITLE10=Soulfly IV
TTITLE11=Wings
TTITLE12=Back To The Primitive (live)
TTITLE13=No Hope =No Fear (live)
TTITLE14=Spit (live)
TTITLE15=Jumpdafuckup - Bring It (live)
TTITLE16=The Song Remains Insane (live)
TTITLE17=Roots Bloody Roots (live)
EXTD=YEAR: 2004
EXTT0=
EXTT1=
EXTT2=
EXTT3=
EXTT4=
EXTT5=
EXTT6=
EXTT7=
EXTT8=
EXTT9=
EXTT10=
EXTT11=
EXTT12=
EXTT13=
EXTT14=
EXTT15=
EXTT16=
EXTT17=
PLAYORDER=
